<svg version="1.0" xmlns="http://www.w3.org/2000/svg" width="1704" height="968" viewBox="0 0 1278 726" style="color:white">
  <path d="M488.3 168.1c-3.1 1.6-3.7 5.8-2.9 20.2 2.4 41.8 14.9 73.8 40.9 104.5 10.8 12.8 32.2 29.8 46.6 37.1l4.3 2.3-.6 6.6c-4.8 53.8-5 53.1 27.3 84.9 11.8 11.6 22.2 21.4 23.1 21.6 2.6.7 5.9-1.1 6.4-3.5.3-1.3 1-15.4 1.5-31.4 1.1-30.6 1.6-34.1 6.2-40.9l2.3-3.4 2.7 5c6.6 12 14.4 20.2 25.9 26.9 11.8 7 22.8 10 36.4 10 11.5 0 12.1-.7 11.3-13.7-.4-5.4-1.4-12.5-2.3-15.8-4.8-18.2-18.9-35.9-34.8-43.7-2.5-1.2-4.6-2.5-4.6-2.9 0-1.3 9.1-8 13.7-10.1 4.4-1.9 7.5-2.2 35.7-3 17-.5 31.7-1.3 32.7-1.9 2.2-1.1 3.4-5.2 2.2-7.1-.4-.7-10.6-10.9-22.5-22.6-30.3-29.7-31.9-30.3-66.9-27.7-11.1.8-20.3 1.4-20.5 1.2-.2-.1-2.4-4.1-5-8.7-23.1-42.1-64.3-71.9-112.7-81.6-14.3-2.8-42.7-4.2-46.4-2.3zm45.2 13.8c31 6.8 54.3 19.2 76.6 40.8 13 12.6 20.7 22.8 28.9 38.2 3 5.7 6.2 10.7 7.1 11.2 1 .5 10 .2 22-.7 24.6-1.9 32.8-1.6 38.9 1.6 2.5 1.3 11.3 9 20.4 18l15.9 15.7-21.9.7c-36.6 1.2-35.3.6-64.8 29.6-30.6 30.1-31.4 31.6-32.7 58.9-.4 9.7-.8 20.5-.8 24.1l-.1 6.5-15.6-15.5c-8.5-8.5-16.6-17.3-17.9-19.5-4-6.7-4.4-13.3-2.5-39.2 1-12.9 1.5-24.3 1.3-25.4-.3-1.1-4.7-4.2-10.7-7.5-15-8.4-21.8-13.6-35.2-26.9-29.1-28.7-45.4-67-45.4-106.4v-7.4l13.8.6c7.5.4 17.8 1.5 22.7 2.6zm142.3 162.3c12.8 6.3 25.7 21.2 29.9 34.6 1.2 4.1 3.3 18.2 2.7 18.2-3.3 0-16.9-2.6-21.1-4.1-13.9-4.8-28.6-18.9-33.4-32.2l-1.3-3.7 7.9-8c4.4-4.4 8.1-8 8.2-8 .2 0 3.4 1.5 7.1 3.2z"/>
  <path d="M564.7 225.1c-12.7 3.1-20.6 12.2-21.5 25.2-.6 7.9 1.4 14 6.1 19.4 9.6 10.9 24.7 13 36.8 5.2 17.8-11.4 15.4-39.2-4.1-47.8-5.7-2.4-12.4-3.2-17.3-2zm13.4 12.9c9 4.6 11.5 16.5 5.1 24.1-8.6 10.3-24.1 7.3-28.2-5.4-4.3-13.4 10.3-25.2 23.1-18.7zM340 572.1c-11.7 28.7-21.5 53-21.8 54.1-.4 1.7 0 1.9 2.9 1.6 3.3-.3 3.3-.4 9.9-16.8l6.6-16.5 23.5-.3 23.4-.2 6.6 16.7 6.7 16.8 3.6.3c2 .2 3.6-.1 3.6-.6 0-.9-42.8-106.3-43.4-106.9-.2-.2-9.8 23.2-21.6 51.8zm31.4-10.8c5.3 13.4 9.6 24.6 9.6 25 0 .4-9 .7-20 .7s-20-.2-20-.5c0-.5 19-47.6 19.7-48.8.2-.4.6-.7.8-.7.1 0 4.6 10.9 9.9 24.3zM464.5 524c-26.4 3.7-44.8 25.3-44.9 52.5 0 23.2 13.2 42.3 34.5 49.6 9.9 3.4 25.8 3.2 35.8-.4 9.6-3.4 11-4.7 8.7-8.1l-1.7-2.6-3.7 1.9c-13.2 6.7-30.1 6.8-43.1.1-9.9-5-19-16.5-22.1-27.8-1.8-6.8-1.4-19.8.8-26.9 5.2-16.7 19.1-28.6 36.7-31.5 7.9-1.3 16.6 0 25.2 3.7 3 1.4 5.7 2.5 5.9 2.5.2 0 1.1-1.4 1.9-3l1.6-3.1-5.4-2.4c-10.2-4.5-20-5.9-30.2-4.5zM965.1 524c-8.9 1.3-13.9 3.1-22 8.4-11 7.1-19.5 19.5-22.2 32.5-1.7 8.1-.6 23.3 2 30.3 11.3 29.6 46.1 42.3 74.9 27.4 3.2-1.6 3.2-1.7 1.5-4.4-.9-1.5-1.8-2.8-1.9-3-.1-.2-1.7.6-3.5 1.7-8.7 5-23.1 6.5-34.4 3.6-19.7-5.2-32.5-22.6-32.5-44.3 0-27.8 25.5-50 51.9-45.3 3.7.7 9.1 2.3 12 3.7 6.5 3 6.5 3 7.9-.1 1.6-3.5 1.7-3.2-3-5.6-9-4.6-19.9-6.3-30.7-4.9zM184.5 526.4c-17 5.9-22.8 23.7-11.9 36.4 3.5 4.1 12.9 9.4 21.9 12.2 6.8 2.1 15.8 7 19.4 10.3 4.4 4.2 6.1 8.4 6.1 14.9-.1 10.1-5.1 16.8-15.5 20.7-9.6 3.6-20 2.1-32.5-4.5-6-3.2-6.6-3.3-7.7-1.7-2.2 3-1.4 4.2 4.5 7.1 10 5.1 16 6.6 25.7 6.6 20.7 0 32.5-10.8 32.5-29.3-.1-14.9-5.7-20.4-32.7-31.7-12.7-5.3-16.7-8.3-18.9-14-3.1-8.1.4-16.1 8.9-20.7 6.1-3.2 19.3-3 29.5.6l7.3 2.5 1.2-2.5c.9-1.9.8-2.6-.4-3.4-3.3-2.2-14.7-4.9-22.3-5.4-6.9-.5-9.1-.2-15.1 1.9zM1045 525.5c-10.6 3-17.1 9.5-18.9 18.8-1.8 9.6 2.2 18.5 10.5 23.3 2.6 1.5 10.1 4.9 16.7 7.6 6.6 2.6 13.8 6 15.9 7.5 11.6 8 12.6 24 2.1 33.2-11.3 10-25.8 9.2-47.4-2.6-.3-.2-1.1.9-1.8 2.3-1.4 3.2-1.4 3.2 7.5 7.5 6.6 3.2 17.5 5.9 23.9 5.9 8.4 0 19.8-4.5 24.6-9.7 5.2-5.5 7.3-11.1 7.3-19.3 0-6-.6-8.6-2.4-12.4-4.2-8.3-7.6-10.5-32.5-21.2-5-2.1-10.7-5.5-12.9-7.5-3.6-3.3-4-4.1-4.4-9.8-.4-5.3-.1-6.6 2.1-10 6.6-10 24.2-11.5 42.8-3.7 1.1.5 1.9-.1 2.8-2 .6-1.5 1-2.8.9-3-.2-.1-3.7-1.4-7.9-2.8-9.8-3.3-21.5-4.1-28.9-2.1zM255 576.4V628h6l.2-21.8.3-21.7 14-.5c12.3-.5 14.6-.8 18.9-3 9.8-5 15.8-15.1 15.9-27 .1-12.1-4.7-20.6-14.7-25.8-4.9-2.6-5.8-2.7-22.8-3l-17.8-.4v51.6zm36.6-42.6c17.3 9 15.8 34.1-2.6 42-2.4 1-7.2 1.5-15.5 1.6l-12 .1-.3-22c-.1-12.1 0-22.6.3-23.3.4-1.2 3-1.4 13.3-1 10.5.3 13.4.8 16.8 2.6zM527 576.5V628h66v-7h-59v-42h51v-6h-51v-42h57v-6h-64v51.5zM621 576.5V628h64v-7h-57v-96h-7v51.5zM700.3 535.7c3.5 6 12.3 21 19.5 33.4l13.2 22.6v36.4l3.3-.3 3.2-.3.3-18.7.2-18.8 18.6-31.7c10.3-17.5 18.8-32.1 19.1-32.6.2-.4-1.5-.7-3.9-.7l-4.3.1L753 554c-12.4 21.7-16.8 28.6-17.5 27.6-.5-.7-8.2-13.8-17-29l-16-27.6h-8.4l6.2 10.7zM793 528v3h30l.2 48.2.3 48.3 3.3.3 3.2.3V531h31v-6h-68v3zM886 576.5V628h7V525h-7v51.5z"/>
</svg>
