<svg version="1.0" xmlns="http://www.w3.org/2000/svg" width="1704" height="968" viewBox="0 0 1278 726" style="color:#fff">
  <path d="M488 168c-3 2-3 6-3 20a166 166 0 0 0 88 142l4 2v7c-5 54-5 53 27 85l23 21c3 1 6-1 6-3l2-32c1-30 1-34 6-40l2-4 3 5c7 12 15 20 26 27 12 7 23 10 36 10 12 0 12-1 12-14l-3-15c-4-19-19-36-34-44l-5-3c0-1 9-8 14-10 4-2 7-2 35-3l33-2c2-1 4-5 2-7l-22-23c-30-29-32-30-67-27l-21 1-5-9a165 165 0 0 0-159-84zm46 14c31 7 54 19 76 41 13 12 21 22 29 38l7 11c1 1 10 0 22-1 25-2 33-1 39 2 3 1 11 9 20 18l16 16h-22c-36 2-35 1-64 30-31 30-32 32-33 59l-1 24v7l-16-16-18-19c-3-7-4-14-2-40 1-13 2-24 1-25l-10-8a150 150 0 0 1-81-133v-7h14l22 3zm142 162c13 7 25 21 30 35l2 18-21-4c-14-5-28-19-33-32l-1-4 8-8 8-8 7 3z"/>
  <path d="M565 225c-13 3-21 12-22 25 0 8 2 14 6 20 10 11 25 13 37 5 18-12 16-39-4-48-6-2-12-3-17-2zm13 13c9 5 12 17 5 24-8 10-24 7-28-5-4-14 10-25 23-19zM340 572l-22 54c0 2 0 2 3 2s3-1 10-17l7-16 23-1h23l7 17 7 17h3l4-1-43-107-22 52zm31-11 10 25-20 1h-20a2385 2385 0 0 1 21-50l9 24zm94-37c-27 4-45 25-45 53 0 23 13 42 34 49 10 4 26 3 36 0 10-4 11-5 9-8l-2-3-4 2a45 45 0 0 1-65-28c-2-7-1-20 1-27a45 45 0 0 1 62-28l6 3 1-3 2-3-5-2c-11-5-20-6-31-5zm500 0c-9 1-14 3-22 8a54 54 0 0 0-20 63c11 30 46 42 75 28 3-2 3-2 1-5l-2-3-3 2c-9 5-23 6-35 3-19-5-32-22-32-44 0-28 26-50 52-45l12 4c6 3 6 3 8 0 1-4 1-4-3-6-9-5-20-6-31-5zm-780 2c-17 6-23 24-12 37 3 4 12 9 21 12 7 2 16 7 20 10 4 4 6 9 6 15 0 10-5 17-15 21-10 3-20 2-33-5-6-3-7-3-8-1-2 3-1 4 5 7 10 5 16 6 26 6 20 0 32-10 32-29 0-15-6-20-33-32-12-5-16-8-19-14-3-8 1-16 9-20 6-4 20-3 30 0l7 3 1-3v-3c-3-2-15-5-22-6-7 0-10 0-16 2zm860 0c-11 3-17 9-19 18-2 10 2 19 11 24l16 7 16 8c12 8 13 24 2 33-11 10-26 9-47-3l-2 3c-1 3-1 3 8 7 6 3 17 6 23 6 9 0 20-5 25-10s7-11 7-19c0-6 0-9-2-12-4-9-8-11-33-22l-12-7c-4-3-4-4-5-10 0-5 0-7 2-10 7-10 24-11 43-4 1 1 2 0 3-2l1-3-8-2c-10-4-22-5-29-3zm-790 50v52h6v-43l15-1c12 0 14-1 18-3 10-5 16-15 16-27s-4-21-14-26c-5-2-6-2-23-3h-18v51zm37-42c17 9 15 34-3 42l-15 1h-12l-1-21v-24l14-1c10 1 13 1 17 3zm235 43v51h66v-7h-59v-42h51v-6h-51v-42h57v-6h-64v52zm94 0v51h64v-7h-57v-96h-7v52zm79-41 20 33 13 23v36h6l1-19v-19l19-32 19-32-4-1h-4l-17 29c-12 22-17 29-17 28l-17-29-16-28h-9l6 11zm93-8v3h30v48l1 49h6v-97h31v-6h-68v3zm93 49v51h7V525h-7v52z"/>
</svg>